<svg width="1562" height="861" xmlns="http://www.w3.org/2000/svg" xmlns:xlink="http://www.w3.org/1999/xlink" overflow="hidden"><defs><clipPath id="clip0"><rect x="0" y="0" width="1562" height="861"/></clipPath><clipPath id="clip1"><rect x="0" y="0" width="1562" height="860"/></clipPath><clipPath id="clip2"><rect x="0" y="0" width="1562" height="860"/></clipPath><clipPath id="clip3"><rect x="299" y="50" width="1216" height="616"/></clipPath><clipPath id="clip4"><rect x="0" y="0" width="1562" height="860"/></clipPath><clipPath id="clip5"><rect x="299" y="50" width="1216" height="616"/></clipPath><clipPath id="clip6"><rect x="0" y="0" width="1562" height="860"/></clipPath><clipPath id="clip7"><rect x="299" y="50" width="1216" height="616"/></clipPath><clipPath id="clip8"><rect x="0" y="0" width="1562" height="860"/></clipPath><clipPath id="clip9"><rect x="299" y="50" width="1216" height="616"/></clipPath><clipPath id="clip10"><rect x="0" y="0" width="1562" height="860"/></clipPath><clipPath id="clip11"><rect x="0" y="0" width="1562" height="860"/></clipPath><clipPath id="clip12"><rect x="0" y="0" width="1562" height="860"/></clipPath><clipPath id="clip13"><rect x="0" y="0" width="1562" height="860"/></clipPath><clipPath id="clip14"><rect x="0" y="0" width="1562" height="860"/></clipPath><clipPath id="clip15"><rect x="0" y="0" width="1562" height="860"/></clipPath><clipPath id="clip16"><rect x="0" y="0" width="1562" height="860"/></clipPath><clipPath id="clip17"><rect x="0" y="0" width="1562" height="860"/></clipPath><clipPath id="clip18"><rect x="0" y="0" width="1562" height="860"/></clipPath><clipPath id="clip19"><rect x="0" y="0" width="1562" height="860"/></clipPath><clipPath id="clip20"><rect x="0" y="0" width="1562" height="860"/></clipPath><clipPath id="clip21"><rect x="0" y="0" width="1562" height="860"/></clipPath><clipPath id="clip22"><rect x="0" y="0" width="1562" height="860"/></clipPath><clipPath id="clip23"><rect x="0" y="0" width="1562" height="860"/></clipPath><clipPath id="clip24"><rect x="0" y="0" width="1562" height="860"/></clipPath><clipPath id="clip25"><rect x="0" y="0" width="1562" height="860"/></clipPath><clipPath id="clip26"><rect x="0" y="0" width="1562" height="860"/></clipPath><clipPath id="clip27"><rect x="0" y="0" width="1562" height="860"/></clipPath><clipPath id="clip28"><rect x="0" y="0" width="1562" height="860"/></clipPath><clipPath id="clip29"><rect x="0" y="0" width="1562" height="860"/></clipPath><clipPath id="clip30"><rect x="0" y="0" width="1562" height="860"/></clipPath><clipPath id="clip31"><rect x="0" y="0" width="1562" height="860"/></clipPath><clipPath id="clip32"><rect x="0" y="0" width="1562" height="860"/></clipPath><clipPath id="clip33"><rect x="0" y="0" width="1562" height="860"/></clipPath><clipPath id="clip34"><rect x="0" y="0" width="1562" height="860"/></clipPath><clipPath id="clip35"><rect x="0" y="0" width="1562" height="860"/></clipPath><clipPath id="clip36"><rect x="0" y="0" width="1562" height="860"/></clipPath><clipPath id="clip37"><rect x="0" y="0" width="1562" height="860"/></clipPath><clipPath id="clip38"><rect x="0" y="0" width="1562" height="860"/></clipPath><clipPath id="clip39"><rect x="0" y="0" width="1562" height="860"/></clipPath><clipPath id="clip40"><rect x="0" y="0" width="1562" height="860"/></clipPath><clipPath id="clip41"><rect x="0" y="0" width="1562" height="860"/></clipPath><clipPath id="clip42"><rect x="0" y="0" width="1562" height="860"/></clipPath><clipPath id="clip43"><rect x="0" y="0" width="1562" height="860"/></clipPath></defs><g clip-path="url(#clip0)"><rect x="0" y="0" width="1562" height="861" fill="#FFFFFF" fill-opacity="1"/><g clip-path="url(#clip1)"><path d="M0 0 0.000360892 612" stroke="#000000" stroke-width="3.4375" stroke-linecap="butt" stroke-linejoin="round" stroke-miterlimit="10" stroke-opacity="1" fill="none" fill-rule="evenodd" transform="matrix(1 0 0 -1 299.5 662.5)"/></g><g clip-path="url(#clip2)"><path d="M299.5 662.5 1511.5 662.5" stroke="#000000" stroke-width="3.4375" stroke-linecap="butt" stroke-linejoin="round" stroke-miterlimit="10" stroke-opacity="1" fill="none" fill-rule="evenodd"/></g><g clip-path="url(#clip3)"><path d="M451.5 480.5 754.525 301.51 1057.53 213.507 1360.5 71.5" stroke="#000000" stroke-width="6.875" stroke-linecap="round" stroke-linejoin="round" stroke-miterlimit="10" stroke-opacity="1" fill="none" fill-rule="nonzero"/></g><g clip-path="url(#clip4)"><path d="M435.5 464.5 466.5 464.5 466.5 495.5 435.5 495.5Z" stroke="#000000" stroke-width="3.4375" stroke-linecap="butt" stroke-linejoin="round" stroke-miterlimit="10" stroke-opacity="1" fill="#000000" fill-rule="nonzero" fill-opacity="1"/><path d="M738.5 285.5 769.5 285.5 769.5 316.5 738.5 316.5Z" stroke="#000000" stroke-width="3.4375" stroke-linecap="butt" stroke-linejoin="round" stroke-miterlimit="10" stroke-opacity="1" fill="#000000" fill-rule="nonzero" fill-opacity="1"/><path d="M1041.5 197.5 1072.5 197.5 1072.5 228.5 1041.5 228.5Z" stroke="#000000" stroke-width="3.4375" stroke-linecap="butt" stroke-linejoin="round" stroke-miterlimit="10" stroke-opacity="1" fill="#000000" fill-rule="nonzero" fill-opacity="1"/><path d="M1344.5 55.5002 1375.5 55.5002 1375.5 86.4998 1344.5 86.4998Z" stroke="#000000" stroke-width="3.4375" stroke-linecap="butt" stroke-linejoin="round" stroke-miterlimit="10" stroke-opacity="1" fill="#000000" fill-rule="nonzero" fill-opacity="1"/></g><g clip-path="url(#clip5)"><path d="M451.5 504.5 754.525 336.511 1057.53 259.509 1360.5 112.5" stroke="#000000" stroke-width="6.875" stroke-linecap="round" stroke-linejoin="round" stroke-miterlimit="10" stroke-opacity="1" fill="none" fill-rule="nonzero"/></g><g clip-path="url(#clip6)"><path d="M466.5 504C466.5 512.56 459.561 519.5 451 519.5 442.44 519.5 435.501 512.56 435.501 504 435.501 495.44 442.44 488.5 451 488.5 459.561 488.5 466.5 495.44 466.5 504Z" stroke="#000000" stroke-width="3.4375" stroke-linecap="butt" stroke-linejoin="round" stroke-miterlimit="10" stroke-opacity="1" fill="#000000" fill-rule="nonzero" fill-opacity="1"/><path d="M769.5 336C769.5 344.56 762.56 351.499 754 351.499 745.44 351.499 738.501 344.56 738.501 336 738.501 327.44 745.44 320.5 754 320.5 762.56 320.5 769.5 327.44 769.5 336Z" stroke="#000000" stroke-width="3.4375" stroke-linecap="butt" stroke-linejoin="round" stroke-miterlimit="10" stroke-opacity="1" fill="#000000" fill-rule="nonzero" fill-opacity="1"/><path d="M1072.5 259C1072.5 267.56 1065.56 274.499 1057 274.499 1048.44 274.499 1041.5 267.56 1041.5 259 1041.5 250.44 1048.44 243.5 1057 243.5 1065.56 243.5 1072.5 250.44 1072.5 259Z" stroke="#000000" stroke-width="3.4375" stroke-linecap="butt" stroke-linejoin="round" stroke-miterlimit="10" stroke-opacity="1" fill="#000000" fill-rule="nonzero" fill-opacity="1"/><path d="M1375.5 112C1375.5 120.56 1368.56 127.499 1360 127.499 1351.44 127.499 1344.5 120.56 1344.5 112 1344.5 103.44 1351.44 96.5001 1360 96.5001 1368.56 96.5001 1375.5 103.44 1375.5 112Z" stroke="#000000" stroke-width="3.4375" stroke-linecap="butt" stroke-linejoin="round" stroke-miterlimit="10" stroke-opacity="1" fill="#000000" fill-rule="nonzero" fill-opacity="1"/></g><g clip-path="url(#clip7)"><path d="M451.5 524.5 754.525 381.513 1057.53 314.51 1360.5 204.5" stroke="#000000" stroke-width="6.875" stroke-linecap="round" stroke-linejoin="round" stroke-miterlimit="10" stroke-opacity="1" fill="none" fill-rule="nonzero"/></g><g clip-path="url(#clip8)"><path d="M451.5 508.5 467.5 540.5 435.5 540.5Z" stroke="#000000" stroke-width="3.4375" stroke-linecap="butt" stroke-linejoin="round" stroke-miterlimit="10" stroke-opacity="1" fill="#000000" fill-rule="nonzero" fill-opacity="1"/><path d="M754.5 365.5 770.5 397.5 738.5 397.5Z" stroke="#000000" stroke-width="3.4375" stroke-linecap="butt" stroke-linejoin="round" stroke-miterlimit="10" stroke-opacity="1" fill="#000000" fill-rule="nonzero" fill-opacity="1"/><path d="M1057.5 298.5 1073.5 330.499 1041.5 330.499Z" stroke="#000000" stroke-width="3.4375" stroke-linecap="butt" stroke-linejoin="round" stroke-miterlimit="10" stroke-opacity="1" fill="#000000" fill-rule="nonzero" fill-opacity="1"/><path d="M1360.5 188.5 1376.5 220.499 1344.5 220.499Z" stroke="#000000" stroke-width="3.4375" stroke-linecap="butt" stroke-linejoin="round" stroke-miterlimit="10" stroke-opacity="1" fill="#000000" fill-rule="nonzero" fill-opacity="1"/></g><g clip-path="url(#clip9)"><path d="M450.075 592.371 468.846 583.824C470.574 583.037 472.612 583.8 473.399 585.528 474.186 587.256 473.423 589.294 471.695 590.081L452.924 598.628C451.197 599.415 449.158 598.652 448.371 596.924 447.585 595.197 448.348 593.158 450.075 592.371ZM493.873 572.428 512.644 563.88C514.372 563.094 516.41 563.857 517.197 565.584 517.984 567.312 517.221 569.351 515.493 570.137L496.722 578.685C494.995 579.471 492.956 578.708 492.169 576.981 491.383 575.253 492.146 573.214 493.873 572.428ZM537.671 552.484 556.442 543.937C558.17 543.15 560.208 543.913 560.995 545.641 561.782 547.368 561.019 549.407 559.291 550.194L540.52 558.741C538.793 559.528 536.754 558.765 535.967 557.037 535.181 555.309 535.943 553.271 537.671 552.484ZM581.469 532.54 600.24 523.993C601.968 523.206 604.006 523.969 604.793 525.697 605.58 527.425 604.817 529.463 603.089 530.25L584.318 538.797C582.591 539.584 580.552 538.821 579.765 537.093 578.979 535.365 579.741 533.327 581.469 532.54ZM625.267 512.597 644.038 504.049C645.766 503.262 647.804 504.025 648.591 505.753 649.378 507.481 648.615 509.519 646.887 510.306L628.116 518.853C626.389 519.64 624.35 518.877 623.563 517.15 622.777 515.422 623.539 513.383 625.267 512.597ZM669.065 492.653 687.836 484.105C689.564 483.319 691.602 484.082 692.389 485.809 693.175 487.537 692.413 489.576 690.685 490.362L671.914 498.91C670.187 499.696 668.148 498.934 667.361 497.206 666.575 495.478 667.337 493.44 669.065 492.653ZM712.863 472.709 731.634 464.162C733.362 463.375 735.4 464.138 736.187 465.866 736.974 467.593 736.211 469.632 734.483 470.419L715.712 478.966C713.984 479.753 711.946 478.99 711.159 477.262 710.373 475.534 711.135 473.496 712.863 472.709ZM757.563 453.285 777.659 448.643C779.509 448.215 781.355 449.368 781.782 451.218 782.209 453.068 781.056 454.914 779.207 455.341L759.111 459.984C757.261 460.411 755.415 459.258 754.988 457.408 754.56 455.558 755.714 453.713 757.563 453.285ZM804.453 442.453 824.549 437.81C826.399 437.383 828.245 438.536 828.672 440.385 829.099 442.235 827.946 444.081 826.097 444.509L806.001 449.151C804.151 449.578 802.305 448.425 801.878 446.576 801.45 444.726 802.604 442.88 804.453 442.453ZM851.343 431.62 871.439 426.977C873.289 426.55 875.135 427.703 875.562 429.553 875.989 431.403 874.836 433.249 872.987 433.676L852.891 438.318C851.041 438.746 849.195 437.593 848.768 435.743 848.34 433.893 849.494 432.047 851.343 431.62ZM898.233 420.787 918.329 416.145C920.179 415.717 922.025 416.87 922.452 418.72 922.879 420.57 921.726 422.416 919.877 422.843L899.781 427.486C897.931 427.913 896.085 426.76 895.658 424.91 895.23 423.06 896.384 421.215 898.233 420.787ZM945.123 409.955 965.219 405.312C967.069 404.885 968.915 406.038 969.342 407.887 969.769 409.737 968.616 411.583 966.766 412.011L946.671 416.653C944.821 417.08 942.975 415.927 942.548 414.078 942.12 412.228 943.273 410.382 945.123 409.955ZM992.013 399.122 1012.11 394.479C1013.96 394.052 1015.8 395.205 1016.23 397.055 1016.66 398.905 1015.51 400.751 1013.66 401.178L993.561 405.82C991.711 406.248 989.865 405.095 989.438 403.245 989.01 401.395 990.164 399.549 992.013 399.122ZM1038.9 388.289 1056.76 384.164 1058.46 383.484C1060.24 382.81 1062.22 383.703 1062.9 385.478 1063.57 387.253 1062.68 389.238 1060.9 389.911L1058.31 390.862 1040.45 394.988C1038.6 395.415 1036.76 394.262 1036.33 392.412 1035.9 390.562 1037.05 388.717 1038.9 388.289ZM1084.17 373.724 1103.45 366.404C1105.23 365.73 1107.21 366.623 1107.89 368.398 1108.56 370.173 1107.67 372.158 1105.89 372.831L1086.61 380.151C1084.84 380.825 1082.85 379.933 1082.18 378.158 1081.5 376.383 1082.4 374.398 1084.17 373.724ZM1129.16 356.644 1148.45 349.324C1150.22 348.65 1152.21 349.543 1152.88 351.318 1153.55 353.093 1152.66 355.078 1150.89 355.751L1131.6 363.071C1129.83 363.745 1127.84 362.853 1127.17 361.078 1126.5 359.303 1127.39 357.318 1129.16 356.644ZM1174.16 339.564 1193.44 332.244C1195.21 331.57 1197.2 332.463 1197.87 334.238 1198.55 336.012 1197.65 337.998 1195.88 338.671L1176.6 345.991C1174.82 346.665 1172.84 345.773 1172.16 343.998 1171.49 342.223 1172.38 340.238 1174.16 339.564ZM1219.15 322.484 1238.43 315.164C1240.21 314.49 1242.19 315.383 1242.86 317.158 1243.54 318.932 1242.65 320.917 1240.87 321.591L1221.59 328.911C1219.81 329.585 1217.83 328.692 1217.15 326.918 1216.48 325.143 1217.37 323.158 1219.15 322.484ZM1264.14 305.404 1283.42 298.084C1285.2 297.41 1287.18 298.303 1287.86 300.077 1288.53 301.852 1287.64 303.837 1285.86 304.511L1266.58 311.831C1264.81 312.505 1262.82 311.612 1262.15 309.837 1261.47 308.063 1262.37 306.078 1264.14 305.404ZM1309.13 288.324 1328.41 281.004C1330.19 280.33 1332.17 281.223 1332.85 282.997 1333.52 284.772 1332.63 286.757 1330.85 287.431L1311.57 294.751C1309.8 295.425 1307.81 294.532 1307.14 292.757 1306.46 290.983 1307.36 288.997 1309.13 288.324ZM1354.12 271.244 1359.28 269.286C1361.05 268.613 1363.04 269.505 1363.71 271.28 1364.39 273.055 1363.49 275.04 1361.72 275.714L1356.56 277.671C1354.79 278.345 1352.8 277.452 1352.13 275.677 1351.46 273.902 1352.35 271.917 1354.12 271.244Z" fill="#000000" fill-rule="nonzero" fill-opacity="1"/></g><g clip-path="url(#clip10)"><path d="M466.5 595C466.5 603.56 459.561 610.499 451 610.499 442.44 610.499 435.501 603.56 435.501 595 435.501 586.44 442.44 579.5 451 579.5 459.561 579.5 466.5 586.44 466.5 595Z" stroke="#000000" stroke-width="3.4375" stroke-linecap="butt" stroke-linejoin="round" stroke-miterlimit="10" stroke-opacity="1" fill="none" fill-rule="nonzero"/><path d="M769.5 457C769.5 465.56 762.56 472.499 754 472.499 745.44 472.499 738.501 465.56 738.501 457 738.501 448.44 745.44 441.5 754 441.5 762.56 441.5 769.5 448.44 769.5 457Z" stroke="#000000" stroke-width="3.4375" stroke-linecap="butt" stroke-linejoin="round" stroke-miterlimit="10" stroke-opacity="1" fill="none" fill-rule="nonzero"/><path d="M1072.5 387C1072.5 395.56 1065.56 402.499 1057 402.499 1048.44 402.499 1041.5 395.56 1041.5 387 1041.5 378.44 1048.44 371.5 1057 371.5 1065.56 371.5 1072.5 378.44 1072.5 387Z" stroke="#000000" stroke-width="3.4375" stroke-linecap="butt" stroke-linejoin="round" stroke-miterlimit="10" stroke-opacity="1" fill="none" fill-rule="nonzero"/><path d="M1375.5 272C1375.5 280.56 1368.56 287.5 1360 287.5 1351.44 287.5 1344.5 280.56 1344.5 272 1344.5 263.44 1351.44 256.5 1360 256.5 1368.56 256.5 1375.5 263.44 1375.5 272Z" stroke="#000000" stroke-width="3.4375" stroke-linecap="butt" stroke-linejoin="round" stroke-miterlimit="10" stroke-opacity="1" fill="none" fill-rule="nonzero"/></g><g clip-path="url(#clip11)"><text fill="#000000" fill-opacity="1" font-family="Helvetica,Helvetica_MSFontService,sans-serif" font-style="normal" font-variant="normal" font-weight="400" font-stretch="normal" font-size="50" text-anchor="start" direction="ltr" writing-mode="lr-tb" unicode-bidi="normal" text-decoration="none" transform="matrix(1 0 0 1 149.508 676)">8000</text></g><g clip-path="url(#clip12)"><text fill="#000000" fill-opacity="1" font-family="Helvetica,Helvetica_MSFontService,sans-serif" font-style="normal" font-variant="normal" font-weight="400" font-stretch="normal" font-size="50" text-anchor="start" direction="ltr" writing-mode="lr-tb" unicode-bidi="normal" text-decoration="none" transform="matrix(1 0 0 1 149.508 608)">9000</text></g><g clip-path="url(#clip13)"><text fill="#000000" fill-opacity="1" font-family="Helvetica,Helvetica_MSFontService,sans-serif" font-style="normal" font-variant="normal" font-weight="400" font-stretch="normal" font-size="50" text-anchor="start" direction="ltr" writing-mode="lr-tb" unicode-bidi="normal" text-decoration="none" transform="matrix(1 0 0 1 121.458 540)">10000</text></g><g clip-path="url(#clip14)"><text fill="#000000" fill-opacity="1" font-family="Helvetica,Helvetica_MSFontService,sans-serif" font-style="normal" font-variant="normal" font-weight="400" font-stretch="normal" font-size="50" text-anchor="start" direction="ltr" writing-mode="lr-tb" unicode-bidi="normal" text-decoration="none" transform="matrix(1 0 0 1 121.458 472)">11000</text></g><g clip-path="url(#clip15)"><text fill="#000000" fill-opacity="1" font-family="Helvetica,Helvetica_MSFontService,sans-serif" font-style="normal" font-variant="normal" font-weight="400" font-stretch="normal" font-size="50" text-anchor="start" direction="ltr" writing-mode="lr-tb" unicode-bidi="normal" text-decoration="none" transform="matrix(1 0 0 1 121.458 404)">12000</text></g><g clip-path="url(#clip16)"><text fill="#000000" fill-opacity="1" font-family="Helvetica,Helvetica_MSFontService,sans-serif" font-style="normal" font-variant="normal" font-weight="400" font-stretch="normal" font-size="50" text-anchor="start" direction="ltr" writing-mode="lr-tb" unicode-bidi="normal" text-decoration="none" transform="matrix(1 0 0 1 121.458 336)">13000</text></g><g clip-path="url(#clip17)"><text fill="#000000" fill-opacity="1" font-family="Helvetica,Helvetica_MSFontService,sans-serif" font-style="normal" font-variant="normal" font-weight="400" font-stretch="normal" font-size="50" text-anchor="start" direction="ltr" writing-mode="lr-tb" unicode-bidi="normal" text-decoration="none" transform="matrix(1 0 0 1 121.458 268)">14000</text></g><g clip-path="url(#clip18)"><text fill="#000000" fill-opacity="1" font-family="Helvetica,Helvetica_MSFontService,sans-serif" font-style="normal" font-variant="normal" font-weight="400" font-stretch="normal" font-size="50" text-anchor="start" direction="ltr" writing-mode="lr-tb" unicode-bidi="normal" text-decoration="none" transform="matrix(1 0 0 1 121.458 200)">15000</text></g><g clip-path="url(#clip19)"><text fill="#000000" fill-opacity="1" font-family="Helvetica,Helvetica_MSFontService,sans-serif" font-style="normal" font-variant="normal" font-weight="400" font-stretch="normal" font-size="50" text-anchor="start" direction="ltr" writing-mode="lr-tb" unicode-bidi="normal" text-decoration="none" transform="matrix(1 0 0 1 121.458 132)">16000</text></g><g clip-path="url(#clip20)"><text fill="#000000" fill-opacity="1" font-family="Helvetica,Helvetica_MSFontService,sans-serif" font-style="normal" font-variant="normal" font-weight="400" font-stretch="normal" font-size="50" text-anchor="start" direction="ltr" writing-mode="lr-tb" unicode-bidi="normal" text-decoration="none" transform="matrix(1 0 0 1 121.458 64)">17000</text></g><g clip-path="url(#clip21)"><text fill="#000000" fill-opacity="1" font-family="Helvetica,Helvetica_MSFontService,sans-serif" font-style="normal" font-variant="normal" font-weight="400" font-stretch="normal" font-size="50" text-anchor="start" direction="ltr" writing-mode="lr-tb" unicode-bidi="normal" text-decoration="none" transform="matrix(1 0 0 1 409.248 728)">300</text></g><g clip-path="url(#clip22)"><text fill="#000000" fill-opacity="1" font-family="Helvetica,Helvetica_MSFontService,sans-serif" font-style="normal" font-variant="normal" font-weight="400" font-stretch="normal" font-size="50" text-anchor="start" direction="ltr" writing-mode="lr-tb" unicode-bidi="normal" text-decoration="none" transform="matrix(1 0 0 1 712.179 728)">360</text></g><g clip-path="url(#clip23)"><text fill="#000000" fill-opacity="1" font-family="Helvetica,Helvetica_MSFontService,sans-serif" font-style="normal" font-variant="normal" font-weight="400" font-stretch="normal" font-size="50" text-anchor="start" direction="ltr" writing-mode="lr-tb" unicode-bidi="normal" text-decoration="none" transform="matrix(1 0 0 1 1015.11 728)">420</text></g><g clip-path="url(#clip24)"><text fill="#000000" fill-opacity="1" font-family="Helvetica,Helvetica_MSFontService,sans-serif" font-style="normal" font-variant="normal" font-weight="400" font-stretch="normal" font-size="50" text-anchor="start" direction="ltr" writing-mode="lr-tb" unicode-bidi="normal" text-decoration="none" transform="matrix(1 0 0 1 1318.04 728)">500</text></g><g clip-path="url(#clip25)"><text fill="#000000" fill-opacity="1" font-family="Helvetica,Helvetica_MSFontService,sans-serif" font-style="normal" font-variant="normal" font-weight="400" font-stretch="normal" font-size="50" text-anchor="start" direction="ltr" writing-mode="lr-tb" unicode-bidi="normal" text-decoration="none" transform="matrix(6.12323e-17 -1 1 6.12323e-17 56.532 641)">Débit moyen (m</text></g><g clip-path="url(#clip26)"><text fill="#000000" fill-opacity="1" font-family="Helvetica,Helvetica_MSFontService,sans-serif" font-style="normal" font-variant="normal" font-weight="400" font-stretch="normal" font-size="34" text-anchor="start" direction="ltr" writing-mode="lr-tb" unicode-bidi="normal" text-decoration="none" transform="matrix(6.12323e-17 -1 1 6.12323e-17 41.5216 285)">3</text></g><g clip-path="url(#clip27)"><text fill="#000000" fill-opacity="1" font-family="Helvetica,Helvetica_MSFontService,sans-serif" font-style="normal" font-variant="normal" font-weight="400" font-stretch="normal" font-size="50" text-anchor="start" direction="ltr" writing-mode="lr-tb" unicode-bidi="normal" text-decoration="none" transform="matrix(6.12323e-17 -1 1 6.12323e-17 56.532 252)">s</text></g><g clip-path="url(#clip28)"><text fill="#000000" fill-opacity="1" font-family="Helvetica,Helvetica_MSFontService,sans-serif" font-style="normal" font-variant="normal" font-weight="400" font-stretch="normal" font-size="34" text-anchor="start" direction="ltr" writing-mode="lr-tb" unicode-bidi="normal" text-decoration="none" transform="matrix(6.12323e-17 -1 1 6.12323e-17 41.5216 227)">-</text></g><g clip-path="url(#clip29)"><text fill="#000000" fill-opacity="1" font-family="Helvetica,Helvetica_MSFontService,sans-serif" font-style="normal" font-variant="normal" font-weight="400" font-stretch="normal" font-size="34" text-anchor="start" direction="ltr" writing-mode="lr-tb" unicode-bidi="normal" text-decoration="none" transform="matrix(6.12323e-17 -1 1 6.12323e-17 41.5216 216)">1</text></g><g clip-path="url(#clip30)"><text fill="#000000" fill-opacity="1" font-family="Helvetica,Helvetica_MSFontService,sans-serif" font-style="normal" font-variant="normal" font-weight="400" font-stretch="normal" font-size="50" text-anchor="start" direction="ltr" writing-mode="lr-tb" unicode-bidi="normal" text-decoration="none" transform="matrix(6.12323e-17 -1 1 6.12323e-17 56.532 197)">)</text></g><g clip-path="url(#clip31)"><text fill="#000000" fill-opacity="1" font-family="Helvetica,Helvetica_MSFontService,sans-serif" font-style="normal" font-variant="normal" font-weight="400" font-stretch="normal" font-size="50" text-anchor="start" direction="ltr" writing-mode="lr-tb" unicode-bidi="normal" text-decoration="none" transform="matrix(1 0 0 1 630.679 842)">Distance du lac Ontario (km)</text></g><g clip-path="url(#clip32)"><path d="M1079.5 418.5 1194.5 418.5" stroke="#000000" stroke-width="6.875" stroke-linecap="round" stroke-linejoin="round" stroke-miterlimit="10" stroke-opacity="1" fill="none" fill-rule="evenodd"/></g><g clip-path="url(#clip33)"><path d="M1123.54 404.513 1149.54 404.513 1149.54 430.514 1123.54 430.514Z" stroke="#000000" stroke-width="3.4375" stroke-linecap="butt" stroke-linejoin="round" stroke-miterlimit="10" stroke-opacity="1" fill="#000000" fill-rule="nonzero" fill-opacity="1"/></g><g clip-path="url(#clip34)"><text fill="#000000" fill-opacity="1" font-family="Helvetica,Helvetica_MSFontService,sans-serif" font-style="normal" font-variant="normal" font-weight="400" font-stretch="normal" font-size="46" text-anchor="start" direction="ltr" writing-mode="lr-tb" unicode-bidi="normal" text-decoration="none" transform="matrix(1 0 0 1 1207.66 430)">2019</text></g><g clip-path="url(#clip35)"><path d="M1079.5 491.5 1194.5 491.5" stroke="#000000" stroke-width="6.875" stroke-linecap="round" stroke-linejoin="round" stroke-miterlimit="10" stroke-opacity="1" fill="none" fill-rule="evenodd"/></g><g clip-path="url(#clip36)"><path d="M1149.02 490.5C1149.02 497.413 1143.41 503.018 1136.5 503.018 1129.59 503.018 1123.98 497.413 1123.98 490.5 1123.98 483.586 1129.59 477.981 1136.5 477.981 1143.41 477.981 1149.02 483.586 1149.02 490.5Z" stroke="#000000" stroke-width="3.4375" stroke-linecap="butt" stroke-linejoin="round" stroke-miterlimit="10" stroke-opacity="1" fill="#000000" fill-rule="nonzero" fill-opacity="1"/></g><g clip-path="url(#clip37)"><text fill="#000000" fill-opacity="1" font-family="Helvetica,Helvetica_MSFontService,sans-serif" font-style="normal" font-variant="normal" font-weight="400" font-stretch="normal" font-size="46" text-anchor="start" direction="ltr" writing-mode="lr-tb" unicode-bidi="normal" text-decoration="none" transform="matrix(1 0 0 1 1207.66 503)">2017</text></g><g clip-path="url(#clip38)"><path d="M1079.5 565.5 1194.5 565.5" stroke="#000000" stroke-width="6.875" stroke-linecap="round" stroke-linejoin="round" stroke-miterlimit="10" stroke-opacity="1" fill="none" fill-rule="evenodd"/></g><g clip-path="url(#clip39)"><path d="M1137.5 552.5 1150.5 578.499 1124.5 578.499Z" stroke="#000000" stroke-width="3.4375" stroke-linecap="butt" stroke-linejoin="round" stroke-miterlimit="10" stroke-opacity="1" fill="#000000" fill-rule="nonzero" fill-opacity="1"/></g><g clip-path="url(#clip40)"><text fill="#000000" fill-opacity="1" font-family="Helvetica,Helvetica_MSFontService,sans-serif" font-style="normal" font-variant="normal" font-weight="400" font-stretch="normal" font-size="46" text-anchor="start" direction="ltr" writing-mode="lr-tb" unicode-bidi="normal" text-decoration="none" transform="matrix(1 0 0 1 1207.66 577)">2018</text></g><g clip-path="url(#clip41)"><path d="M1079.5 635.062 1100.12 635.062C1102.02 635.062 1103.56 636.601 1103.56 638.5 1103.56 640.398 1102.02 641.937 1100.12 641.937L1079.5 641.937C1077.6 641.937 1076.06 640.398 1076.06 638.5 1076.06 636.601 1077.6 635.062 1079.5 635.062ZM1127.62 635.062 1148.25 635.063C1150.15 635.063 1151.69 636.602 1151.69 638.5 1151.69 640.398 1150.15 641.938 1148.25 641.938L1127.62 641.937C1125.73 641.937 1124.19 640.398 1124.19 638.5 1124.19 636.602 1125.73 635.062 1127.62 635.062ZM1175.75 635.063 1194.5 635.063C1196.4 635.063 1197.94 636.602 1197.94 638.5 1197.94 640.399 1196.4 641.938 1194.5 641.938L1175.75 641.938C1173.85 641.938 1172.31 640.399 1172.31 638.5 1172.31 636.602 1173.85 635.063 1175.75 635.063Z" fill="#000000" fill-rule="nonzero" fill-opacity="1"/></g><g clip-path="url(#clip42)"><path d="M1149.02 638C1149.02 645.179 1143.41 650.999 1136.5 650.999 1129.59 650.999 1123.98 645.179 1123.98 638 1123.98 630.82 1129.59 625 1136.5 625 1143.41 625 1149.02 630.82 1149.02 638Z" stroke="#000000" stroke-width="3.4375" stroke-linecap="butt" stroke-linejoin="round" stroke-miterlimit="10" stroke-opacity="1" fill="none" fill-rule="nonzero"/></g><g clip-path="url(#clip43)"><text fill="#000000" fill-opacity="1" font-family="Helvetica,Helvetica_MSFontService,sans-serif" font-style="normal" font-variant="normal" font-weight="400" font-stretch="normal" font-size="46" text-anchor="start" direction="ltr" writing-mode="lr-tb" unicode-bidi="normal" text-decoration="none" transform="matrix(1 0 0 1 1207.66 650)">Moyenne 10 ans</text></g></g></svg>