<svg width="1462" height="1114" xmlns="http://www.w3.org/2000/svg" xmlns:xlink="http://www.w3.org/1999/xlink" overflow="hidden"><defs><clipPath id="clip0"><rect x="55" y="435" width="1462" height="1114"/></clipPath><clipPath id="clip1"><rect x="346" y="491" width="1121" height="934"/></clipPath><clipPath id="clip2"><rect x="346" y="491" width="1121" height="934"/></clipPath><clipPath id="clip3"><rect x="346" y="491" width="1121" height="934"/></clipPath><clipPath id="clip4"><rect x="55" y="436" width="1459" height="1112"/></clipPath><clipPath id="clip5"><rect x="55" y="436" width="1459" height="1112"/></clipPath><clipPath id="clip6"><rect x="55" y="436" width="1459" height="1112"/></clipPath><clipPath id="clip7"><rect x="55" y="436" width="1459" height="1112"/></clipPath><clipPath id="clip8"><rect x="55" y="436" width="1459" height="1112"/></clipPath><clipPath id="clip9"><rect x="55" y="436" width="1459" height="1112"/></clipPath><clipPath id="clip10"><rect x="55" y="436" width="1459" height="1112"/></clipPath><clipPath id="clip11"><rect x="55" y="436" width="1459" height="1112"/></clipPath><clipPath id="clip12"><rect x="55" y="436" width="1459" height="1112"/></clipPath><clipPath id="clip13"><rect x="55" y="436" width="1459" height="1112"/></clipPath><clipPath id="clip14"><rect x="55" y="436" width="1459" height="1112"/></clipPath><clipPath id="clip15"><rect x="55" y="436" width="1459" height="1112"/></clipPath><clipPath id="clip16"><rect x="55" y="436" width="1459" height="1112"/></clipPath><clipPath id="clip17"><rect x="55" y="436" width="1459" height="1112"/></clipPath><clipPath id="clip18"><rect x="55" y="436" width="1459" height="1112"/></clipPath><clipPath id="clip19"><rect x="55" y="436" width="1459" height="1112"/></clipPath><clipPath id="clip20"><rect x="55" y="436" width="1459" height="1112"/></clipPath><clipPath id="clip21"><rect x="55" y="436" width="1459" height="1112"/></clipPath><clipPath id="clip22"><rect x="55" y="436" width="1459" height="1112"/></clipPath><clipPath id="clip23"><rect x="55" y="436" width="1459" height="1112"/></clipPath><clipPath id="clip24"><rect x="55" y="436" width="1459" height="1112"/></clipPath><clipPath id="clip25"><rect x="55" y="436" width="1459" height="1112"/></clipPath><clipPath id="clip26"><rect x="55" y="436" width="1459" height="1112"/></clipPath></defs><g clip-path="url(#clip0)" transform="translate(-55 -435)"><rect x="55" y="437" width="1459" height="1112" fill="#FFFFFF" fill-opacity="1"/><g clip-path="url(#clip1)"><path d="M458.015 759.025 607.02 759.025 607.02 1422 458.015 1422ZM830.027 1421 979.032 1421 979.032 1422 830.027 1422ZM1203.04 1251.04 1352.04 1251.04 1352.04 1422 1203.04 1422Z" fill="#203864" fill-rule="nonzero" fill-opacity="1"/></g><g clip-path="url(#clip2)"><path d="M458.015 725.024 607.02 725.024 607.02 759.025 458.015 759.025ZM830.027 1240.04 979.032 1240.04 979.032 1421.05 830.027 1421.05ZM1203.04 1209.04 1352.04 1209.04 1352.04 1251.04 1203.04 1251.04Z" fill="#8FAADC" fill-rule="nonzero" fill-opacity="1"/></g><g clip-path="url(#clip3)"><path d="M458.015 721.024 607.02 721.024 607.02 725.024 458.015 725.024ZM830.027 1128.04 979.032 1128.04 979.032 1240.04 830.027 1240.04ZM1203.04 1192.04 1352.04 1192.04 1352.04 1209.04 1203.04 1209.04Z" fill="#DAE3F3" fill-rule="nonzero" fill-opacity="1"/></g><g clip-path="url(#clip4)"><path d="M0 0 0.000360892 930" stroke="#000000" stroke-width="4.58333" stroke-linecap="butt" stroke-linejoin="round" stroke-miterlimit="10" stroke-opacity="1" fill="none" fill-rule="evenodd" transform="matrix(1 0 0 -1 346.5 1421.5)"/></g><g clip-path="url(#clip5)"><path d="M346.5 1421.5 1463.5 1421.5" stroke="#000000" stroke-width="4.58333" stroke-linecap="butt" stroke-linejoin="round" stroke-miterlimit="10" stroke-opacity="1" fill="none" fill-rule="evenodd"/></g><g clip-path="url(#clip6)"><text fill="#000000" fill-opacity="1" font-family="Helvetica,Helvetica_MSFontService,sans-serif" font-style="normal" font-variant="normal" font-weight="400" font-stretch="normal" font-size="64" text-anchor="start" direction="ltr" writing-mode="lr-tb" unicode-bidi="normal" text-decoration="none" transform="matrix(1 0 0 1 261.918 1438)">0</text></g><g clip-path="url(#clip7)"><text fill="#000000" fill-opacity="1" font-family="Helvetica,Helvetica_MSFontService,sans-serif" font-style="normal" font-variant="normal" font-weight="400" font-stretch="normal" font-size="64" text-anchor="start" direction="ltr" writing-mode="lr-tb" unicode-bidi="normal" text-decoration="none" transform="matrix(1 0 0 1 226.237 1345)">10</text></g><g clip-path="url(#clip8)"><text fill="#000000" fill-opacity="1" font-family="Helvetica,Helvetica_MSFontService,sans-serif" font-style="normal" font-variant="normal" font-weight="400" font-stretch="normal" font-size="64" text-anchor="start" direction="ltr" writing-mode="lr-tb" unicode-bidi="normal" text-decoration="none" transform="matrix(1 0 0 1 226.237 1252)">20</text></g><g clip-path="url(#clip9)"><text fill="#000000" fill-opacity="1" font-family="Helvetica,Helvetica_MSFontService,sans-serif" font-style="normal" font-variant="normal" font-weight="400" font-stretch="normal" font-size="64" text-anchor="start" direction="ltr" writing-mode="lr-tb" unicode-bidi="normal" text-decoration="none" transform="matrix(1 0 0 1 226.237 1159)">30</text></g><g clip-path="url(#clip10)"><text fill="#000000" fill-opacity="1" font-family="Helvetica,Helvetica_MSFontService,sans-serif" font-style="normal" font-variant="normal" font-weight="400" font-stretch="normal" font-size="64" text-anchor="start" direction="ltr" writing-mode="lr-tb" unicode-bidi="normal" text-decoration="none" transform="matrix(1 0 0 1 226.237 1066)">40</text></g><g clip-path="url(#clip11)"><text fill="#000000" fill-opacity="1" font-family="Helvetica,Helvetica_MSFontService,sans-serif" font-style="normal" font-variant="normal" font-weight="400" font-stretch="normal" font-size="64" text-anchor="start" direction="ltr" writing-mode="lr-tb" unicode-bidi="normal" text-decoration="none" transform="matrix(1 0 0 1 226.237 973)">50</text></g><g clip-path="url(#clip12)"><text fill="#000000" fill-opacity="1" font-family="Helvetica,Helvetica_MSFontService,sans-serif" font-style="normal" font-variant="normal" font-weight="400" font-stretch="normal" font-size="64" text-anchor="start" direction="ltr" writing-mode="lr-tb" unicode-bidi="normal" text-decoration="none" transform="matrix(1 0 0 1 226.237 880)">60</text></g><g clip-path="url(#clip13)"><text fill="#000000" fill-opacity="1" font-family="Helvetica,Helvetica_MSFontService,sans-serif" font-style="normal" font-variant="normal" font-weight="400" font-stretch="normal" font-size="64" text-anchor="start" direction="ltr" writing-mode="lr-tb" unicode-bidi="normal" text-decoration="none" transform="matrix(1 0 0 1 226.237 787)">70</text></g><g clip-path="url(#clip14)"><text fill="#000000" fill-opacity="1" font-family="Helvetica,Helvetica_MSFontService,sans-serif" font-style="normal" font-variant="normal" font-weight="400" font-stretch="normal" font-size="64" text-anchor="start" direction="ltr" writing-mode="lr-tb" unicode-bidi="normal" text-decoration="none" transform="matrix(1 0 0 1 226.237 694)">80</text></g><g clip-path="url(#clip15)"><text fill="#000000" fill-opacity="1" font-family="Helvetica,Helvetica_MSFontService,sans-serif" font-style="normal" font-variant="normal" font-weight="400" font-stretch="normal" font-size="64" text-anchor="start" direction="ltr" writing-mode="lr-tb" unicode-bidi="normal" text-decoration="none" transform="matrix(1 0 0 1 226.237 601)">90</text></g><g clip-path="url(#clip16)"><text fill="#000000" fill-opacity="1" font-family="Helvetica,Helvetica_MSFontService,sans-serif" font-style="normal" font-variant="normal" font-weight="400" font-stretch="normal" font-size="64" text-anchor="start" direction="ltr" writing-mode="lr-tb" unicode-bidi="normal" text-decoration="none" transform="matrix(1 0 0 1 190.555 508)">100</text></g><g clip-path="url(#clip17)"><text fill="#000000" fill-opacity="1" font-family="Helvetica,Helvetica_MSFontService,sans-serif" font-style="normal" font-variant="normal" font-weight="400" font-stretch="normal" font-size="64" text-anchor="start" direction="ltr" writing-mode="lr-tb" unicode-bidi="normal" text-decoration="none" transform="matrix(1 0 0 1 493.151 1504)">Pd</text></g><g clip-path="url(#clip18)"><text fill="#000000" fill-opacity="1" font-family="Helvetica,Helvetica_MSFontService,sans-serif" font-style="normal" font-variant="normal" font-weight="400" font-stretch="normal" font-size="64" text-anchor="start" direction="ltr" writing-mode="lr-tb" unicode-bidi="normal" text-decoration="none" transform="matrix(1 0 0 1 760.507 1504)">ST-BDOC</text></g><g clip-path="url(#clip19)"><text fill="#000000" fill-opacity="1" font-family="Helvetica,Helvetica_MSFontService,sans-serif" font-style="normal" font-variant="normal" font-weight="400" font-stretch="normal" font-size="64" text-anchor="start" direction="ltr" writing-mode="lr-tb" unicode-bidi="normal" text-decoration="none" transform="matrix(1 0 0 1 1136.56 1504)">LT-BDOC</text></g><g clip-path="url(#clip20)"><text fill="#000000" fill-opacity="1" font-family="Helvetica,Helvetica_MSFontService,sans-serif" font-style="normal" font-variant="normal" font-weight="400" font-stretch="normal" font-size="64" text-anchor="start" direction="ltr" writing-mode="lr-tb" unicode-bidi="normal" text-decoration="none" transform="matrix(6.12323e-17 -1 1 6.12323e-17 152.468 1260)">Variation explained (%)</text></g><g clip-path="url(#clip21)"><rect x="1150" y="527" width="29.0002" height="28.9999" fill="#203864" fill-opacity="1"/></g><g clip-path="url(#clip22)"><text fill="#000000" fill-opacity="1" font-family="Helvetica,Helvetica_MSFontService,sans-serif" font-style="normal" font-variant="normal" font-weight="400" font-stretch="normal" font-size="64" text-anchor="start" direction="ltr" writing-mode="lr-tb" unicode-bidi="normal" text-decoration="none" transform="matrix(1 0 0 1 1192.02 557)">Factor 1</text></g><g clip-path="url(#clip23)"><rect x="1150" y="681" width="29.0002" height="28.9999" fill="#8FAADC" fill-opacity="1"/></g><g clip-path="url(#clip24)"><text fill="#000000" fill-opacity="1" font-family="Helvetica,Helvetica_MSFontService,sans-serif" font-style="normal" font-variant="normal" font-weight="400" font-stretch="normal" font-size="64" text-anchor="start" direction="ltr" writing-mode="lr-tb" unicode-bidi="normal" text-decoration="none" transform="matrix(1 0 0 1 1192.02 712)">Factor 2</text></g><g clip-path="url(#clip25)"><rect x="1150" y="835" width="29.0002" height="28.9999" fill="#DAE3F3" fill-opacity="1"/></g><g clip-path="url(#clip26)"><text fill="#000000" fill-opacity="1" font-family="Helvetica,Helvetica_MSFontService,sans-serif" font-style="normal" font-variant="normal" font-weight="400" font-stretch="normal" font-size="64" text-anchor="start" direction="ltr" writing-mode="lr-tb" unicode-bidi="normal" text-decoration="none" transform="matrix(1 0 0 1 1192.02 866)">Factor 3</text></g></g></svg>